<?xml version="1.0" standalone="no"?>
<!DOCTYPE svg PUBLIC "-//W3C//DTD SVG 20010904//EN"
 "http://www.w3.org/TR/2001/REC-SVG-20010904/DTD/svg10.dtd">
<svg version="1.0" xmlns="http://www.w3.org/2000/svg"
 width="128.000000pt" height="128.000000pt" viewBox="0 0 128.000000 128.000000"
 preserveAspectRatio="xMidYMid meet">

<g transform="translate(0.000000,128.000000) scale(0.100000,-0.100000)"
fill="#000000" stroke="none">
<path d="M177 1266 c-66 -24 -111 -61 -142 -117 l-30 -54 0 -455 0 -455 30
-54 c32 -58 90 -103 155 -121 46 -13 854 -13 900 0 65 18 123 63 155 121 l30
54 0 455 0 455 -30 54 c-32 58 -90 103 -155 121 -58 16 -866 12 -913 -4z m634
-299 c60 -30 82 -60 87 -122 5 -66 -9 -105 -54 -144 l-33 -29 25 -6 c33 -9 89
-60 104 -96 7 -17 11 -53 8 -84 -6 -77 -41 -126 -115 -163 -57 -27 -62 -28
-250 -31 l-193 -4 0 352 0 352 193 -4 c158 -3 198 -7 228 -21z"/>
<path d="M570 785 l0 -75 33 0 c58 0 106 19 113 44 18 72 -14 106 -98 106
l-48 0 0 -75z"/>
<path d="M570 505 l0 -85 55 0 c64 0 119 20 134 48 18 34 13 71 -14 97 -21 22
-33 25 -100 25 l-75 0 0 -85z"/>
</g>
</svg>
