<?xml version="1.0" standalone="no"?>
<!DOCTYPE svg PUBLIC "-//W3C//DTD SVG 20010904//EN"
 "http://www.w3.org/TR/2001/REC-SVG-20010904/DTD/svg10.dtd">
<svg version="1.0" xmlns="http://www.w3.org/2000/svg"
 width="14.000000pt" height="14.000000pt" viewBox="0 0 14.000000 14.000000"
 preserveAspectRatio="xMidYMid meet">

<g transform="translate(0.000000,14.000000) scale(0.100000,-0.100000)"
fill="#000000" stroke="none">
<path d="M12 131 c-9 -5 -12 -26 -10 -67 l3 -59 65 0 65 0 3 59 c4 69 -3 76
-68 76 -25 0 -51 -4 -58 -9z m88 -47 c13 -32 -3 -56 -34 -52 -16 2 -22 11 -24
41 -3 34 -1 37 23 37 18 0 28 -7 35 -26z"/>
<path d="M65 60 c-3 -5 -1 -10 4 -10 6 0 11 5 11 10 0 6 -2 10 -4 10 -3 0 -8
-4 -11 -10z"/>
</g>
</svg>
